<svg width="337" height="51" viewBox="0 0 337 51" fill="none" xmlns="http://www.w3.org/2000/svg">
<path d="M26.9599 50.7C23.3199 50.7 19.9133 50.07 16.7399 48.81C13.5666 47.5033 10.7899 45.7066 8.40992 43.42C6.07659 41.1333 4.23326 38.4733 2.87992 35.44C1.57326 32.36 0.919922 29.0466 0.919922 25.5C0.919922 21.9066 1.57326 18.5933 2.87992 15.56C4.23326 12.48 6.09992 9.79665 8.47992 7.50998C10.8599 5.22331 13.6133 3.44998 16.7399 2.18998C19.9133 0.883314 23.3199 0.22998 26.9599 0.22998C29.6666 0.22998 32.2799 0.603313 34.7999 1.34998C37.3199 2.09665 39.6533 3.14665 41.7999 4.49998C43.9933 5.85331 45.8599 7.48665 47.3999 9.39998L40.5399 16.19C38.7666 13.9966 36.7133 12.34 34.3799 11.22C32.0933 10.1 29.6199 9.53998 26.9599 9.53998C24.7666 9.53998 22.7133 9.95998 20.7999 10.8C18.8866 11.5933 17.2299 12.7133 15.8299 14.16C14.4299 15.56 13.3333 17.24 12.5399 19.2C11.7466 21.1133 11.3499 23.2133 11.3499 25.5C11.3499 27.74 11.7466 29.84 12.5399 31.8C13.3333 33.7133 14.4533 35.3933 15.8999 36.84C17.3466 38.24 19.0266 39.3366 20.9399 40.13C22.8999 40.9233 25.0233 41.32 27.3099 41.32C29.8766 41.32 32.2799 40.7833 34.5199 39.71C36.7599 38.6367 38.7433 37.0966 40.4699 35.09L47.1199 41.67C45.5799 43.5366 43.7366 45.1466 41.5899 46.5C39.4433 47.8533 37.1099 48.9033 34.5899 49.65C32.1166 50.35 29.5733 50.7 26.9599 50.7Z" fill="#212526"/>
<path d="M73.9841 50.7C69.5507 50.7 65.7007 49.8133 62.4341 48.04C59.2141 46.2666 56.7174 43.7466 54.9441 40.48C53.1707 37.1666 52.2841 33.2933 52.2841 28.86V0.999979H62.4341V28.86C62.4341 31.38 62.9007 33.5966 63.8341 35.51C64.8141 37.3766 66.1674 38.8233 67.8941 39.85C69.6674 40.83 71.7207 41.32 74.0541 41.32C76.3874 41.32 78.4174 40.83 80.1441 39.85C81.8707 38.8233 83.2007 37.3766 84.1341 35.51C85.1141 33.5966 85.6041 31.38 85.6041 28.86V0.999979H95.6841V28.86C95.6841 33.2466 94.7974 37.0966 93.0241 40.41C91.2507 43.6766 88.7307 46.22 85.4641 48.04C82.2441 49.8133 78.4174 50.7 73.9841 50.7Z" fill="#212526"/>
<path d="M103.777 50V0.999979H127.717C131.03 0.999979 133.947 1.65331 136.467 2.95998C139.033 4.21998 141.017 5.99331 142.417 8.27998C143.863 10.5666 144.587 13.2033 144.587 16.19C144.587 19.3166 143.723 22.07 141.997 24.45C140.27 26.83 137.96 28.6033 135.067 29.77L145.917 50H134.577L124.987 31.24H113.927V50H103.777ZM113.927 22.91H126.807C129.093 22.91 130.913 22.3033 132.267 21.09C133.667 19.8766 134.367 18.29 134.367 16.33C134.367 14.37 133.667 12.7833 132.267 11.57C130.913 10.3566 129.093 9.74998 126.807 9.74998H113.927V22.91Z" fill="#212526"/>
<path d="M151.286 50V0.999979H175.226C178.54 0.999979 181.456 1.65331 183.976 2.95998C186.543 4.21998 188.526 5.99331 189.926 8.27998C191.373 10.5666 192.096 13.2033 192.096 16.19C192.096 19.3166 191.233 22.07 189.506 24.45C187.78 26.83 185.47 28.6033 182.576 29.77L193.426 50H182.086L172.496 31.24H161.436V50H151.286ZM161.436 22.91H174.316C176.603 22.91 178.423 22.3033 179.776 21.09C181.176 19.8766 181.876 18.29 181.876 16.33C181.876 14.37 181.176 12.7833 179.776 11.57C178.423 10.3566 176.603 9.74998 174.316 9.74998H161.436V22.91Z" fill="#212526"/>
<path d="M198.796 50V0.999979H236.456V9.81998H208.946V21.02H227.076V29.56H208.946V41.18H236.736V50H198.796Z" fill="#212526"/>
<path d="M243.913 50V0.999979H253.573L277.933 32.64V0.999979H287.453V50H278.493L253.503 17.24V50H243.913Z" fill="#212526"/>
<path d="M309.715 50V9.95998H293.195V0.999979H336.315V9.95998H319.865V50H309.715Z" fill="#212526"/>
</svg>
