<svg width="341" height="53" viewBox="0 0 341 53" fill="none" xmlns="http://www.w3.org/2000/svg">
<path d="M25.0212 52.1199C37.9012 52.1199 47.0712 44.1399 47.9812 32.3099H37.6912C36.6412 38.5399 32.5812 43.2999 25.0212 43.2999C15.6412 43.2999 10.6012 36.5799 10.6012 26.4999C10.6012 16.4199 15.6412 9.69988 25.0212 9.69988C32.5812 9.69988 36.6412 14.3199 37.6912 20.6899H48.0512C47.0712 8.78988 37.9012 0.879883 25.0212 0.879883C10.5312 0.879883 0.451172 11.3799 0.451172 26.4999C0.451172 41.6199 10.5312 52.1199 25.0212 52.1199Z" fill="#3D3D3B"/>
<path d="M76.0249 52.1199C87.3649 52.1199 96.4649 46.5199 96.4649 32.8699V1.99988H86.7349V31.8199C86.7349 38.8899 83.5849 43.8599 76.0249 43.8599C68.5349 43.8599 65.4549 38.8899 65.4549 31.8199V1.99988H55.6549V32.8699C55.6549 46.5199 64.8249 52.1199 76.0249 52.1199Z" fill="#3D3D3B"/>
<path d="M106.321 50.9999H115.981V33.4999H126.481C131.871 33.4999 133.691 35.6699 134.181 40.7799C134.741 46.9399 135.371 49.6699 135.931 50.9999H146.011C145.241 49.0399 144.751 45.8199 144.121 39.2399C143.421 32.8699 140.551 28.8799 133.691 28.3199V27.9699C139.571 27.8299 145.311 23.2799 145.311 16.1399C145.311 7.73988 139.291 1.99988 128.441 1.99988H106.321V50.9999ZM115.981 26.0099V9.69988H125.991C131.101 9.69988 135.511 12.0099 135.511 17.5399C135.511 23.4199 130.961 26.0099 125.921 26.0099H115.981Z" fill="#3D3D3B"/>
<path d="M154.856 50.9999H164.516V33.4999H175.016C180.406 33.4999 182.226 35.6699 182.716 40.7799C183.276 46.9399 183.906 49.6699 184.466 50.9999H194.546C193.776 49.0399 193.286 45.8199 192.656 39.2399C191.956 32.8699 189.086 28.8799 182.226 28.3199V27.9699C188.106 27.8299 193.846 23.2799 193.846 16.1399C193.846 7.73988 187.826 1.99988 176.976 1.99988H154.856V50.9999ZM164.516 26.0099V9.69988H174.526C179.636 9.69988 184.046 12.0099 184.046 17.5399C184.046 23.4199 179.496 26.0099 174.456 26.0099H164.516Z" fill="#3D3D3B"/>
<path d="M203.391 50.9999H240.001V43.0199H213.051V29.9299H235.941V22.1599H213.051V9.97988H239.161V1.99988H203.391V50.9999Z" fill="#3D3D3B"/>
<path d="M248.782 50.9999H258.372L258.162 16.6999L280.772 50.9999H290.782V1.99988H281.192L281.402 36.7899L258.792 1.99988H248.782V50.9999Z" fill="#3D3D3B"/>
<path d="M313.955 50.9999H323.685V9.97988H340.205V1.99988H297.365V9.97988H313.955V50.9999Z" fill="#3D3D3B"/>
</svg>
