<svg version="1.2" xmlns="http://www.w3.org/2000/svg" viewBox="0 0 4000 2283" width="400" height="228">
	<title>LightLogo</title>
	<style>
		.s0 { fill: #212526 } 
	</style>
	<path id="Path 0" class="s0" d="m959 2c-5.8 0.5-23.3 2.1-39 3.5-15.7 1.4-36.6 3.5-46.5 4.6-9.9 1.1-28.1 3.5-40.5 5.4-12.4 2-31 5.1-41.5 7.1-10.5 1.9-26.4 5.1-35.5 7-9.1 1.9-23.7 5.3-32.5 7.6-8.8 2.2-25.9 7.4-38 11.5-12.1 4.1-36 13-53 19.8-17 6.8-39.8 16.2-50.5 21-10.7 4.7-29 13.3-40.5 19-11.5 5.7-30.2 15.5-41.5 21.8-11.3 6.3-30.4 17.4-42.5 24.7-12.1 7.4-31 19.2-42 26.3-11 7.1-27.4 18-36.5 24.2-9.1 6.3-25.7 18.1-37 26.4-11.3 8.3-32 23.2-46 33.3-14 10.1-34.9 24.6-46.5 32.3-11.5 7.7-28.7 18.8-38 24.6-9.3 5.8-22.8 13.8-30 17.9-7.2 4-16.8 9-21.5 11-4.7 2.1-14.2 5.8-21.3 8.4-7 2.5-19.8 6.7-28.4 9.2-8.7 2.5-21.9 5.9-29.3 7.5-7.4 1.7-23.2 4.1-35 5.4-11.8 1.3-27 3-33.8 3.7l-12.2 1.3v652c38.4-1.1 58.5-2.2 69.5-3 11-0.8 29.2-2.4 40.5-3.5 11.3-1.2 28.8-3.2 39-4.6 10.2-1.4 26.4-3.8 36-5.5 9.6-1.6 25.8-4.5 36-6.5 10.2-2 27.3-5.5 38-7.9 10.7-2.4 27.1-6.4 36.5-9 9.4-2.6 29.4-8.7 44.5-13.7 15.1-5 37.9-12.9 50.5-17.6 12.6-4.6 29.3-11.2 37-14.4 7.7-3.3 17.8-7.9 22.5-10.3 4.7-2.3 15.2-8 23.5-12.5 8.2-4.5 21.3-11.8 29-16.3 7.7-4.4 23.2-13.6 34.5-20.5 11.3-6.8 34.2-21.6 51-32.7 16.8-11.1 46.3-31.2 65.5-44.5 19.2-13.4 44.2-30.8 55.5-38.8 11.3-8 30.2-21.5 42-30.1 11.8-8.5 27.6-19.4 35-24.2 7.4-4.7 19.1-11.8 26-15.8 6.9-4 19.7-10.8 28.5-15.3 8.8-4.5 21-10.1 27-12.5 6-2.4 16.2-6 22.5-7.9 6.3-1.9 17.1-4.5 24-5.9 6.9-1.3 19.5-3.2 28-4.2 12.5-1.4 24.1-1.7 60-1.7 28.9-0.1 49.1 0.4 57.5 1.2 7.2 0.7 17.5 2 23 2.8 5.5 0.8 15.2 2.6 21.5 4 6.3 1.4 17.8 4.6 25.5 7.2 8.3 2.7 19.7 7.5 28 11.7 7.7 3.9 22.1 12 32 18 9.9 6 25.7 15.8 35 21.9 9.3 6 25.4 16.8 35.8 23.8 10.3 7 23.3 16.1 28.9 20.1 5.7 4 21.8 15.7 35.8 25.8 14 10.2 35 25.1 46.5 33.1 11.5 8 30.5 20.8 42 28.3 11.5 7.6 29.3 19.1 39.5 25.5 10.2 6.4 25.7 15.9 34.5 21.1 8.8 5.3 22.8 13.2 31 17.7 8.3 4.5 23.5 12 34 16.8 10.5 4.7 28 12.3 39 16.9 11 4.5 27.9 11.2 37.5 15 9.6 3.7 30.1 10.9 45.5 16 15.4 5.2 37.2 11.7 48.5 14.4 11.3 2.8 29.5 6.8 40.5 9.1 11 2.2 28.5 5.6 39 7.5 10.5 1.9 26.2 4.5 35 5.9 8.8 1.4 23 3.4 31.5 4.5 8.5 1.1 25 2.9 36.5 4 11.5 1.1 28.7 2.6 38 3.2 9.3 0.7 33.7 1.3 54 1.3 20.3 0 44.7-0.6 54-1.2 9.3-0.7 27.1-2.2 39.5-3.3 12.4-1.1 34.9-3.6 50-5.5 15.1-1.9 37.6-5 50-7 12.4-2 32.2-5.3 44-7.5 11.8-2.2 28.5-5.6 37-7.5 8.5-1.9 22.3-5.4 30.5-7.9 8.3-2.4 21.3-6.7 29-9.4 7.7-2.7 18.3-6.5 23.5-8.4 5.2-2 16-6.1 24-9.2 8-3.1 23.9-9.7 35.5-14.7 11.6-4.9 29.6-13.1 40-18.2 10.4-5.1 25.8-13 34-17.5 8.3-4.6 26.3-15.1 40-23.4 13.8-8.2 32.4-19.7 41.5-25.5 9.1-5.8 27.8-18 41.5-27.1 13.8-9.2 33.8-23 44.5-30.7 10.7-7.7 30.8-22.1 44.5-32 13.8-9.9 34.2-24.3 45.5-32.1 11.3-7.7 28.4-19.2 38-25.5 9.6-6.3 22.4-14.6 28.5-18.3 6.1-3.7 15.3-9 20.5-11.6 5.2-2.6 12.9-6.1 17-7.7 4.1-1.6 14.5-5.2 23-8 8.5-2.8 22.9-6.8 32-9.1 9.1-2.2 22.1-4.9 29-6 6.9-1.1 19.3-2.5 27.5-3.2 9.4-0.7 26.3-1 45-0.6 18.5 0.3 35.2 1.1 43.5 2.1 7.4 1 20.3 3 28.5 4.7 8.3 1.6 21.1 4.6 28.5 6.5 7.4 2 20 5.7 28 8.4 8 2.6 18.8 6.7 24 9 5.2 2.2 17.2 8.7 26.5 14.2 9.3 5.6 28.5 17.9 42.5 27.3 14 9.4 32.7 22.2 41.5 28.5 8.8 6.3 29.3 21.1 45.5 33 16.2 11.9 37.2 27 46.5 33.6 9.3 6.6 24.2 17 33 23.1 8.8 6.1 25.2 17.1 36.5 24.6 11.3 7.4 27.3 17.5 35.5 22.4 8.3 5 23.3 13.4 33.5 18.8 10.2 5.4 29.1 15 42 21.3 12.9 6.3 30.9 14.7 40 18.7 9.1 4 22.3 9.7 29.5 12.5 7.2 2.9 24.3 9 38 13.6 13.8 4.6 35.3 11.3 48 14.9 12.7 3.7 30.2 8.4 39 10.5 8.8 2.1 24.3 5.4 34.5 7.4 10.2 1.9 25.7 4.6 34.5 6 8.8 1.4 24.3 3.7 34.5 5 10.2 1.4 29.3 3.7 42.5 5.1 13.2 1.4 44.3 3.8 69 5.5 24.8 1.7 45.8 3 46.8 3 1.6 0 1.7-16.1 1.7-323.5v-323.5c-3.5-0.7-15.5-3-29-5.5-13.5-2.5-33.9-6.6-45.5-9.1-11.6-2.5-29.1-6.5-39-9.1-9.9-2.5-23.4-6.3-30-8.5-6.6-2.2-16.1-5.9-21-8.2-4.9-2.3-15.3-8.2-23-13.1-7.7-4.8-24.1-15.6-36.5-24-12.4-8.3-29.5-20-38-26-8.5-6-31.5-22.5-51-36.5-19.5-14.1-46.1-33.1-59-42.2-12.9-9-33.4-23.2-45.5-31.4-12.1-8.2-29-19.5-37.5-25-8.5-5.6-21.1-13.4-28-17.4-6.9-4-21.5-11.9-32.5-17.6-11-5.7-28.8-14.4-39.5-19.4-10.7-5.1-27.2-12.4-36.5-16.5-9.3-4-24.4-10-33.5-13.3-9.1-3.3-23.7-8.3-32.5-11.2-8.8-2.8-27.5-8.5-41.5-12.5-14-4-32.7-9.2-41.5-11.4-8.8-2.2-23.4-5.5-32.5-7.5-9.1-1.9-24.6-4.8-34.5-6.5-9.9-1.6-23.4-3.6-30-4.5-6.6-0.8-19.4-2.2-28.5-3.1-9.1-0.8-22.8-1.9-30.5-2.5-7.7-0.5-34.2-1.5-59-2.2-35-0.9-54.7-0.9-88.5 0.1-23.9 0.6-52.7 1.8-64 2.6-11.3 0.8-25.2 1.9-31 2.5-5.8 0.6-19.1 2.2-29.5 3.5-10.4 1.4-24.2 3.4-30.5 4.5-6.3 1.1-18 3.4-26 5.1-8 1.7-22.8 5.1-33 7.5-10.2 2.5-27.7 7-39 10-11.3 3.1-29.3 8.3-40 11.6-10.7 3.3-26.7 8.7-35.5 12-8.8 3.3-25.9 10.3-38 15.6-12.1 5.2-31.7 14.1-43.5 19.7-11.8 5.6-27.9 13.6-35.7 17.8-7.9 4.2-22.5 12.7-32.5 18.9-10.1 6.2-35.2 22.5-55.8 36.3-20.6 13.8-46.9 31.8-58.5 39.9-11.6 8.2-33.8 24.2-49.5 35.6-15.7 11.3-37.1 26.5-47.5 33.7-10.4 7.2-28 18.9-39 26-11 7.2-28.8 18.3-39.5 24.7-10.7 6.4-25.1 14.6-32 18.1-6.9 3.5-19 8.6-27 11.3-8 2.7-19.9 6.2-26.5 7.7-6.6 1.5-17.6 3.5-24.5 4.5-6.9 1-20.6 2.4-30.5 3-11.6 0.8-32.6 1-59 0.7-28.8-0.3-45-1-54.5-2.1-7.4-0.9-17.5-2.3-22.5-3.2-5-0.8-14.4-2.9-21-4.5-6.6-1.7-16-4.6-21-6.5-5-1.9-15.7-7-24-11.3-8.2-4.3-23.3-12.7-33.5-18.8-10.2-6.1-27.3-16.9-38-24-10.7-7.1-29.4-20.1-41.5-28.8-12.1-8.7-37.3-26.7-56-40-18.7-13.3-48.2-34-65.5-46-17.3-12.1-39.4-27-49-33.1-9.6-6.1-26.3-16.3-37-22.6-10.7-6.3-27.6-15.9-37.5-21.3-9.9-5.5-24.7-13.1-33-17.1-8.2-4-22-10.2-30.5-13.7-8.5-3.5-24.7-9.9-36-14.2-11.3-4.2-32.4-11.7-47-16.5-14.6-4.9-33-10.7-41-13-8-2.3-21.9-5.9-31-8-9.1-2.1-25.7-5.7-37-8-11.3-2.2-29.7-5.6-41-7.5-11.3-1.9-26.8-4.3-34.5-5.4-7.7-1.1-19.8-2.7-27-3.5-7.2-0.9-20.9-2.2-30.5-3.1-9.6-0.8-29.9-2.4-45-3.6-15.1-1.1-40.3-2.2-56-2.4-15.7-0.2-33.2 0-39 0.5zm17 1244.7c-4.7 0.1-20.2 0.7-34.5 1.3-14.3 0.6-32.3 1.5-40 2.1-7.7 0.5-19 1.6-25 2.5-6 0.8-22.9 3.5-37.5 5.9-14.6 2.4-37.1 6.4-50 8.9-12.9 2.5-33.6 7.1-46 10.1-12.4 3.1-33.5 8.7-47 12.6-13.5 3.9-33.7 10.1-45 13.9-11.3 3.7-26.8 9.3-34.5 12.3-7.7 3-23 9.4-34 14.3-11 4.8-31 14.3-44.5 20.9-13.5 6.7-30.1 15.2-37 19-6.9 3.7-18.1 10.2-25 14.3-6.9 4.1-25.8 16.3-42 27-16.2 10.7-35.4 23.5-42.5 28.5-7.1 5-20 14-28.5 20.1-8.5 6-29.1 21-45.7 33.3-16.7 12.3-38.5 28.1-48.5 35.1-10.1 7.1-26.4 18.2-36.3 24.8-9.9 6.7-25 16.3-33.5 21.6-8.5 5.2-19.8 11.7-25 14.3-5.2 2.6-14.2 6.7-20 9-5.8 2.4-17 6.4-25 9-8 2.6-19 5.7-24.5 7-5.5 1.3-15.4 3.1-22 4-6.6 0.9-21.4 2.9-33 4.6-11.5 1.6-27.3 4.2-35 5.7l-14 2.7-0.5 651.5c5.4 0 20.6-1.1 37.3-2.5 16.6-1.4 42.4-3.7 57.2-5.1 14.9-1.3 35.1-3.4 45-4.5 9.9-1.1 26.8-3.1 37.5-4.4 10.7-1.4 26-3.7 34-5.1 8-1.3 21.9-4.1 31-6 9.1-1.9 24.6-5.6 34.5-8 9.9-2.5 26.1-6.8 36-9.6 9.9-2.8 25-7.4 33.5-10.3 8.5-2.9 24.7-9 36-13.5 11.3-4.5 31.3-13 44.5-18.8 13.2-5.9 33.7-15.4 45.5-21.3 11.8-5.8 28.9-14.9 38-20.1 9.1-5.2 26.2-15.5 38-22.9 11.8-7.3 34.1-21.7 49.5-32 15.4-10.3 35.9-24.2 45.5-31 9.6-6.7 25.8-18.4 36-25.9 10.2-7.5 26.1-19 35.5-25.6 9.4-6.6 24.6-17.2 34-23.6 9.4-6.3 23.5-15.7 31.5-20.8 8-5.1 20.6-13 28-17.5 7.4-4.5 18-10.7 23.5-13.8 5.5-3 15.4-7.9 22-10.7 6.6-2.9 19.9-7.8 29.5-11 9.6-3.2 24.7-7.7 33.5-9.9 8.8-2.2 21.6-5 28.5-6.2 9.5-1.6 18.4-2.2 37.5-2.6 14.6-0.3 32.5-0.1 43 0.6 9.9 0.6 23.6 1.9 30.5 2.7 6.9 0.8 17.2 2.4 23 3.5 5.8 1.1 17.7 3.8 26.5 6.1 8.8 2.2 23.7 6.5 33 9.5 9.3 3.1 20.6 7.1 25 8.9 4.4 1.9 13.6 6.6 20.5 10.5 6.9 3.9 19.7 11.9 28.5 17.7 8.8 5.7 22.8 15.2 31 21 8.3 5.8 28.7 20.7 45.5 33.2 16.8 12.4 38.6 28.5 48.5 35.7 9.9 7.1 27.2 19.5 38.5 27.5 11.3 7.9 27.9 19.4 37 25.5 9.1 6.1 24.6 15.9 34.5 21.8 9.9 6 28.8 16.9 42 24.2 13.2 7.4 37.3 20.1 53.5 28.2 16.2 8.1 37.6 18.2 47.5 22.4 9.9 4.2 27.2 11.2 38.5 15.5 11.3 4.4 28.4 10.7 38 14 9.6 3.4 24 8.1 32 10.6 8 2.4 20.1 5.7 27 7.4 6.9 1.7 20.6 4.7 30.5 6.6 9.9 1.9 28.8 5.3 42 7.5 13.2 2.2 33.9 5.3 46 7 12.1 1.6 30.5 3.9 41 5 10.5 1.2 27.8 2.7 38.5 3.6 10.7 0.8 32.8 2 49 2.5 20.7 0.8 38.2 0.8 58.5 0 15.9-0.6 34.6-1.5 41.5-2 6.9-0.6 19.5-1.7 28-2.6 8.5-0.8 26.3-2.9 39.5-4.5 13.2-1.6 31.7-4.1 41-5.5 9.3-1.4 25.1-3.9 35-5.5 9.9-1.7 24.5-4.4 32.5-6 8-1.7 21-4.8 29-6.9 8-2.2 22.8-6.4 33-9.5 10.2-3.1 27.3-8.6 38-12.2 10.7-3.6 26.3-9 34.5-12 8.3-3.1 21.8-8.5 30-12 8.3-3.6 27.2-12.5 42-19.8 14.8-7.3 35.8-18.1 46.5-24 10.7-5.9 26.3-14.8 34.5-19.8 8.3-4.9 25.3-15.8 38-24.2 12.7-8.4 32-21.5 43-29 11-7.6 29.4-20.6 41-28.9 11.6-8.2 34.7-25.2 51.5-37.6 16.8-12.4 36.3-26.7 43.5-31.7 7.2-5 19.1-13 26.5-17.9 7.4-4.8 20.9-13.2 30-18.7 9.1-5.4 22.1-12.7 29-16.1 6.9-3.5 18.1-8.1 25-10.4 6.9-2.2 19.5-5.9 28-8.1 8.5-2.2 22.5-5.3 31-7 8.5-1.7 20.2-3.8 26-4.6 5.8-0.9 18.4-2 28-2.6 11.8-0.6 24.8-0.6 40 0.1 12.4 0.5 28.1 1.7 35 2.5 6.9 0.8 16.1 2.2 20.5 3.1 4.4 0.8 14.8 3.3 23 5.4 8.3 2.2 19.7 5.5 25.5 7.4 5.8 1.9 14.8 5 20 6.9 5.2 1.9 13.8 5.3 19 7.6 5.2 2.3 16 8.1 24 12.9 8 4.8 26 16.3 40 25.7 14 9.4 32.7 22.2 41.5 28.5 8.8 6.3 29.9 21.6 47 34 17.1 12.5 40 28.9 51 36.7 11 7.7 29 20.1 40 27.5 11 7.5 29.4 19.6 41 27 11.6 7.4 27.8 17.4 36 22.3 8.3 4.8 23.6 13.2 34 18.6 10.4 5.4 27.3 13.7 37.5 18.4 10.2 4.8 26.4 12 36 16.2 9.6 4.1 23.1 9.7 30 12.3 6.9 2.6 17.9 6.6 24.5 8.8 6.6 2.2 20.3 6.6 30.5 9.7 10.2 3.1 25 7.3 33 9.5 8 2.1 22.6 5.9 32.5 8.4 9.9 2.5 23.6 5.7 30.5 7.1 6.9 1.4 21.7 4.1 33 6 11.3 1.9 28.6 4.5 38.5 5.9 9.9 1.4 25.4 3.4 34.5 4.5 9.1 1.1 23.7 2.7 32.5 3.5 8.8 0.9 31.8 2.7 51 4.1 19.3 1.4 36.5 2.5 38.3 2.5h3.2v-651.5c-10.5-1.9-22.7-4.1-34-6-11.3-1.9-29.3-4.6-40-6-10.7-1.4-24.7-3.9-31-5.5-6.3-1.6-17.3-4.9-24.5-7.3-7.2-2.5-16.4-5.8-20.5-7.5-4.1-1.6-11.3-4.8-16-6.9-4.7-2.2-15.5-8.1-24-13.3-8.5-5.1-26.7-16.8-40.5-26.1-13.7-9.2-33-22.5-42.7-29.6-9.8-7-28.7-20.9-42-30.7-13.4-9.9-34.2-24.9-46.3-33.4-12.1-8.5-33.9-23.4-48.5-33.1-14.6-9.7-34.2-22.4-43.5-28.2-9.3-5.9-22.4-13.8-29-17.6-6.6-3.8-20.8-11.7-31.5-17.5-10.7-5.8-26-13.8-34-17.8-8-4-20.8-10.2-28.5-13.7-7.7-3.6-19.8-8.9-27-11.8-7.2-2.9-21.3-8.2-31.5-11.8-10.2-3.6-27.9-9.5-39.5-13.2-11.6-3.6-29.6-9.1-40-12.1-10.4-3-26.7-7-36-9-9.3-1.9-26.2-5-37.5-6.9-11.3-1.9-28.4-4.6-38-6-9.6-1.4-26.7-3.7-38-5-11.3-1.4-29.9-3.4-41.5-4.4-11.6-1.1-29.1-2.6-39-3.2-9.9-0.7-34-1.2-53.5-1.2-19.5 0-43.4 0.5-53 1.2-9.6 0.6-27.6 2-40 3.2-12.4 1.1-33.1 3.3-46 5-12.9 1.6-32.3 4.3-43 5.9-10.7 1.7-29.6 4.8-42 7.1-12.4 2.2-30.8 5.8-41 8-10.2 2.1-25 5.8-33 8-8 2.3-24.2 7.4-36 11.4-11.8 4-27.3 9.4-34.5 12-7.2 2.6-20.7 7.8-30 11.5-9.3 3.7-23.1 9.5-30.5 12.8-7.4 3.3-22.3 10.3-33 15.7-10.7 5.4-25.3 12.9-32.5 16.8-7.2 3.9-20.9 11.5-30.5 17-9.6 5.5-24 14-32 19-8 4.9-22.8 14.7-33 21.7-10.2 7-26.6 18.5-36.5 25.5-9.9 7.1-22.9 16.4-29 20.8-6.1 4.4-26.5 19.6-45.5 33.7-19 14.1-39.7 29.3-46 33.7-6.3 4.4-16.9 11.6-23.5 16-6.6 4.4-18.5 12-26.5 17-8 5-18.7 11.4-23.7 14.2-5.1 2.8-13.9 7.1-19.5 9.5-5.7 2.4-17.3 6.6-25.8 9.4-8.5 2.8-22.5 6.9-31 9.1-8.5 2.2-21.6 5.1-29 6.5-7.4 1.4-20.2 3.3-28.5 4.3-11.9 1.4-22.6 1.8-52 1.8-29.7-0.1-39.6-0.4-50-1.8-7.2-1-18.6-2.9-25.5-4.3-6.9-1.5-19-4.4-27-6.6-8-2.2-19.9-5.9-26.5-8.2-6.6-2.4-17-6.4-23-8.9-6-2.6-17.1-8.3-24.5-12.8-7.4-4.4-23.2-14.5-35-22.3-11.8-7.8-32.1-21.7-45-30.7-12.9-9.1-37-26.4-53.5-38.5-16.5-12.1-35.2-25.6-41.5-30.1-6.3-4.4-23-15.7-37-25-14-9.4-34-22.4-44.5-29-10.5-6.6-27.3-16.9-37.5-23-10.2-6-23.5-13.7-29.5-17.1-6-3.4-20.7-10.8-32.5-16.5-11.8-5.8-30.3-14.3-41-19-10.7-4.7-29.2-12.3-41-17-11.8-4.7-28.6-11.1-37.2-14.1-8.7-3.1-21.1-7.2-27.5-9.2-6.5-1.9-23.5-6.4-37.8-9.9-14.3-3.5-37.2-8.7-51-11.4-13.7-2.8-34.5-6.6-46-8.5-11.5-1.9-26.6-4.2-33.5-5-6.9-0.9-19.5-2.2-28-3.1-8.5-0.8-25.2-2.1-37-3-11.8-0.8-33-1.9-47-2.5-14-0.5-31.4-0.9-38.5-0.8-7.1 0.1-16.8 0.3-21.5 0.5z"/>
</svg>